{"title":"My.Sisters.Hot.Friend.Faye.Reagan.XXXmegathor.mp4","uid":10667014,"size":337858671,"categoryP":"porn","categoryS":"movies","magnet":"?xt=urn:btih:6679937015ef672e73b5bd130f3fda83e75baf12&amp;dn=My.Sisters.Hot.Friend.Faye.Reagan.XXXmegathor.mp4&amp;tr=udp%3A%2F%2Ftracker.openbittorrent.com%3A80&amp;tr=udp%3A%2F%2Fopen.demonii.com%3A1337&amp;tr=udp%3A%2F%2Ftracker.coppersurfer.tk%3A6969&amp;tr=udp%3A%2F%2Fexodus.desync.com%3A6969","seeders":1,"leechers":0,"uploader":"XXXmegathor","files":1,"time":1406818056,"description":"My.Sisters.Hot.Friend.Faye.Reagan.XXXmegathor\n\nSCREENIES\n\n\nDuration                         : 29mn 19s\nOverall bit rate                 : 1 536 Kbps\nEncoded date                     : UTC 2012-06-18 19:01:43\nTagged date                      : UTC 2012-06-18 19:01:43\nWriting application              : Lavf53.32.100\n\nVideo\nID                               : 1\nFormat                           : AVC\nFormat/Info                      : Advanced Video Codec\nFormat profile                   : &lt;a class=&quot;__cf_email__&quot; href=&quot;/cdn-cgi/l/email-protection&quot; data-cfemail=&quot;3179585659717d021f01&quot;&gt;[email&amp;#160;protected]&lt;/a&gt;&lt;script cf-hash='f9e31' type=&quot;text/javascript&quot;&gt;\n/* &lt;![CDATA[ */!function(){try{var t=&quot;currentScript&quot;in document?document.currentScript:function(){for(var t=document.getElementsByTagName(&quot;script&quot;),e=t.length;e--;)if(t[e].getAttribute(&quot;cf-hash&quot;))return t[e]}();if(t&amp;&amp;t.previousSibling){var e,r,n,i,c=t.previousSibling,a=c.getAttribute(&quot;data-cfemail&quot;);if(a){for(e=&quot;&quot;,r=parseInt(a.substr(0,2),16),n=2;a.length-n;n+=2)i=parseInt(a.substr(n,2),16)^r,e+=String.fromCharCode(i);e=document.createTextNode(e),c.parentNode.replaceChild(e,c)}}}catch(u){}}();/* ]]&gt; */&lt;/script&gt;\nFormat settings, CABAC           : Yes\nFormat settings, ReFrames        : 4 frames\nFormat settings, GOP             : N=16\nCodec ID                         : avc1\nCodec ID/Info                    : Advanced Video Coding\nDuration                         : 29mn 19s\nBit rate mode                    : Variable\nBit rate                         : 1 400 Kbps\nWidth                            : 854 pixels\nHeight                           : 480 pixels\nDisplay aspect ratio             : 16:9\nFrame rate mode                  : Constant\nFrame rate                       : 30.000 fps\nColor space                      : YUV\nChroma subsampling               : 4:2:0\nBit depth                        : 8 bits\nScan type                        : Progressive\nBits/(Pixel*Frame)               : 0.114\nStream size                      : 294 MiB (91%)\nWriting library                  : x264 core 120\nEncoding settings                : cabac=1 / ref=4 / deblock=1:0:0 / analyse=0x3:0x113 / me=umh / subme=7 / psy=0 / mixed_ref=1 / me_range=16 / chroma_me=1 / trellis=1 / 8x8dct=1 / cqm=0 / deadzone=21,11 / fast_pskip=0 / chroma_qp_offset=0 / threads=2 / sliced_threads=0 / nr=0 / decimate=1 / interlaced=0 / bluray_compat=0 / constrained_intra=0 / bframes=16 / b_pyramid=2 / b_adapt=1 / b_bias=0 / direct=3 / weightb=1 / open_gop=0 / weightp=2 / keyint=300 / keyint_min=25 / scenecut=40 / intra_refresh=0 / rc=2pass / mbtree=0 / bitrate=1400 / ratetol=1.0 / qcomp=0.60 / qpmin=10 / qpmax=51 / qpstep=4 / cplxblur=20.0 / qblur=0.5 / ip_ratio=1.40 / pb_ratio=1.30 / aq=1:1.00\nLanguage                         : English\nEncoded date                     : UTC 2012-06-18 19:01:43\nTagged date                      : UTC 2012-06-18 19:01:43\n\nAudio\nID                               : 2\nFormat                           : AAC\nFormat/Info                      : Advanced Audio Codec\nFormat profile                   : LC\nCodec ID                         : 40\nDuration                         : 29mn 19s\nBit rate mode                    : Constant\nBit rate                         : 128 Kbps\nChannel(s)                       : 2 channels\nChannel positions                : Front: L R\nSampling rate                    : 44.1 KHz\nCompression mode                 : Lossy\nStream size                      : 26.8 MiB (8%)\nLanguage                         : English\nEncoded date                     : UTC 2012-06-18 19:01:43\nTagged date                      : UTC 2012-06-18 19:01:43\n\n","torrent":{"xt":"urn:btih:6679937015ef672e73b5bd130f3fda83e75baf12","amp;dn":"My.Sisters.Hot.Friend.Faye.Reagan.XXXmegathor.mp4","amp;tr":["udp%3A%2F%2Ftracker.openbittorrent.com%3A80","udp%3A%2F%2Fopen.demonii.com%3A1337","udp%3A%2F%2Ftracker.coppersurfer.tk%3A6969","udp%3A%2F%2Fexodus.desync.com%3A6969"],"infoHash":"6679937015ef672e73b5bd130f3fda83e75baf12","infoHashBuffer":{"type":"Buffer","data":[102,121,147,112,21,239,103,46,115,181,189,19,15,63,218,131,231,91,175,18]},"announce":[],"urlList":[]}}